<svg width="383" height="102" viewBox="0 0 383 102" fill="none" xmlns="http://www.w3.org/2000/svg">
<g clip-path="url(#clip0_418_5377)">
<path d="M80.6408 5.90083L77.6893 22.6198C77.4082 24.095 76.354 25.1488 74.8783 25.1488H74.5972C69.2562 24.7624 54.1119 23.3926 44.4491 23.3926C40.6894 23.3926 36.8242 24.5868 36.8242 29.0124C36.8242 30.874 38.1594 32.1033 42.7273 34.7727L59.0663 44.3967C68.694 50.0165 72.4538 57.3926 72.4538 66.7707C72.4538 91.814 51.4415 101.965 28.6723 101.965C17.6742 101.965 9.13578 100.49 2.28394 98.4876C1.08927 98.1012 0 97.3988 0 96.2045V95.8182L2.81101 79.345C3.09211 77.8698 4.28679 76.6756 5.90312 76.6756H6.18422C11.6657 77.2025 25.8613 78.6777 32.9591 78.6777C38.3 78.6777 42.7273 76.8161 42.7273 70.7748C42.7273 68.7727 41.3921 67.2975 37.4918 64.7335L20.2041 53.3533C12.4387 48.2603 8.67899 39.5496 8.67899 31.2603C8.71413 7.23554 27.583 0 48.8764 0C59.4528 0 73.4025 1.7562 78.6028 3.33678C79.657 3.72314 80.6057 4.28512 80.6057 5.47934V5.8657L80.6408 5.90083Z" fill="#164194"/>
<path d="M156.714 4.28512L153.903 20.6178C153.622 22.093 152.146 23.2872 150.705 23.2872H123.649C118.835 23.2872 116.938 24.9029 116.024 29.9959L114.267 39.7603H147.226C148.562 39.7603 149.51 40.7087 149.51 42.0434V42.4298L146.699 58.2355C146.418 59.7107 145.083 60.905 143.607 60.905H110.648L108.645 72.0041C108.505 73.093 108.364 73.8657 108.364 74.6736C108.364 77.7645 109.981 78.6777 113.846 78.6777H140.902C142.237 78.6777 143.186 79.626 143.186 80.9607V81.3471L140.234 97.6797C139.953 99.2954 138.899 100.103 137.142 100.349C131.906 101.017 123.755 101.965 110.754 101.965C95.0822 101.965 80.7461 96.345 80.7461 78.8182C80.7461 76.6756 81.0272 74.3926 81.4137 72.0041L88.7926 29.9607C93.5011 2.95041 109.559 0 128.463 0C141.464 0 149.616 0.948347 154.57 1.6157C156.046 1.7562 156.714 2.42355 156.714 3.75826V4.28512Z" fill="#164194"/>
<path d="M251.656 4.00414L235.598 95.8533C235.071 98.5227 232.365 100.806 229.695 100.806H213.074C210.65 100.806 209.174 99.7521 208.12 97.188L188.302 52.3347C187.916 51.3864 187.494 51.2459 187.108 51.2459C186.721 51.2459 186.44 51.5269 186.3 52.4401L178.253 98.1012C177.972 99.5765 176.496 100.771 175.056 100.771H154.957C153.622 100.771 152.673 99.8223 152.673 98.4876V98.1012L168.766 6.2872C169.293 3.61777 171.999 1.33472 174.669 1.33472H191.008C193.538 1.33472 194.627 2.95042 195.681 5.23348L216.026 51.4215C216.412 52.3698 216.553 52.6157 216.975 52.6157C217.396 52.6157 217.783 52.4752 217.923 51.4215L226.216 4.03926C226.497 2.56406 227.973 1.36984 229.449 1.36984H249.547C250.882 1.36984 251.691 2.31819 251.691 3.5124V4.03926L251.656 4.00414Z" fill="#164194"/>
<path d="M327.869 100.806H305.1C303.765 100.806 302.816 99.6114 302.816 98.2767L302.429 79.661H278.571L271.473 98.2767C270.946 99.6114 269.716 100.806 268.381 100.806H244.663C243.468 100.806 242.801 100.138 242.801 99.0495C242.801 98.7685 242.941 98.3821 243.082 97.9606L275.479 16.0164C280.749 2.8098 291.326 0.140381 304.046 0.140381C316.765 0.140381 326.428 2.8098 326.955 16.0867L330.434 98.0309V98.1714C330.434 99.6466 329.345 100.841 327.904 100.841L327.869 100.806ZM301.762 24.2354C301.762 23.0412 301.762 22.3739 300.567 22.3739C299.372 22.3739 299.232 23.0412 298.81 24.2354L286.231 58.2354H302.289L301.762 24.2354Z" fill="#164194"/>
<path d="M382.965 3.8988C383.246 2.17772 382.157 1.36987 380.681 1.36987H358.72C357.244 1.36987 355.909 2.42359 355.628 3.8988L351.446 27.6777L381.243 13.7335L382.965 3.93392V3.8988Z" fill="#E84E0F"/>
<path d="M349.584 38.285L339.043 98.1363C338.762 99.471 339.57 100.806 341.186 100.806H363.147C365.15 100.806 366.099 99.6115 366.38 98.1363L379.381 24.3408L349.584 38.285Z" fill="#164194"/>
</g>
<defs>
<clipPath id="clip0_418_5377">
<rect width="383" height="102" fill="white"/>
</clipPath>
</defs>
</svg>
